<?xml version="1.0" encoding="utf-8"?>
<!-- Generator: Adobe Illustrator 24.1.2, SVG Export Plug-In . SVG Version: 6.00 Build 0)  -->
<svg version="1.1" id="Layer_1" xmlns="http://www.w3.org/2000/svg" xmlns:xlink="http://www.w3.org/1999/xlink" x="0px" y="0px"
	 viewBox="0 0 450.6 158.1" style="enable-background:new 0 0 450.6 158.1;" xml:space="preserve">
<style type="text/css">
	.st0{fill:#2B3990;}
	.st1{fill:#9E1F63;}
	.st2{enable-background:new    ;}
	.st3{fill:#231F20;}
</style>
<g>
	<g transform="translate(246.568783, 273.553415)">
	</g>
</g>
<path class="st0" d="M83.3,46.6c2.1,1.8,2.4,4.9,0.6,7s-4.9,2.4-7,0.6c-2.1-1.8-2.4-4.9-0.6-7C78.1,45.1,81.2,44.9,83.3,46.6"/>
<path class="st0" d="M89.1,51.7c0.1,0.1,0,0.3-0.1,0.4c-0.1,0.1-0.3,0.2-0.4,0.1l0,0l-1.1,2.4l-1.3-1.1l2.1-1.5l0,0
	c-0.1-0.1,0-0.3,0.1-0.4c0.1-0.1,0.3-0.2,0.4-0.1l1.8-2.1L89.3,47l0.6,2.1l-1.5-0.5l-2.3,2.8c0.3-2-0.4-4.2-2.1-5.6
	c-1.7-1.4-3.9-1.8-5.8-1.1l2.3-2.7l-1.8-3.3l8.8,3.1l4.6,8.2L91,49.4L89.1,51.7"/>
<path class="st0" d="M76.7,92.5c0,0-7.9-2.2-7.9-16.5c0-6.1,1.1-11-0.8-19.9s-3.2-14.6-2.2-19.9c0,0,1.8,11.7,11,17.3
	C88.3,60.4,93.4,68,93.1,77c0,0-3.6-9-12-11.3c0,0-0.7,25.3,15,36.3c0,0-13.4-2.3-22-23.8C74.1,78.1,72.9,88.2,76.7,92.5"/>
<path class="st0" d="M46.1,46.6c-2.1,1.8-2.4,4.9-0.6,7c1.8,2.1,4.9,2.4,7,0.6c2.1-1.8,2.4-4.9,0.6-7C51.3,45.1,48.2,44.9,46.1,46.6
	"/>
<path class="st0" d="M40.3,51.7c-0.1,0.1,0,0.3,0.1,0.4c0.1,0.1,0.3,0.2,0.4,0.1l0,0l1.1,2.4l1.3-1.1L41,52l0,0
	c0.1-0.1,0-0.3-0.1-0.4c-0.1-0.1-0.3-0.2-0.4-0.1l-1.8-2.1L40,47l-0.6,2.1l1.5-0.5l2.3,2.8c-0.3-2,0.4-4.2,2.1-5.6
	c1.7-1.4,3.9-1.8,5.8-1.1L48.8,42l1.8-3.3l-8.8,3.1L37.2,50l1.1-0.4L40.3,51.7"/>
<path class="st0" d="M52.7,92.5c0,0,7.9-2.2,7.9-16.5c0-6.1-1.1-11,0.8-19.9c1.9-8.9,3.2-14.6,2.2-19.9c0,0-1.8,11.7-11,17.3
	C41,60.4,36,68,36.3,77c0,0,3.6-9,12-11.3c0,0,0.7,25.3-15,36.3c0,0,13.4-2.3,22-23.8C55.3,78.1,56.5,88.2,52.7,92.5"/>
<path class="st1" d="M64.5,33.9l0.2,1.2l0.2-1.2c0.3-2.3,2.1-4.1,4.4-4.5l1.2-0.2L69.2,29c-2.3-0.3-4.1-2.1-4.5-4.4l-0.2-1.2
	l-0.2,1.2c-0.3,2.3-2.1,4.1-4.4,4.5l-1.2,0.2l1.2,0.2C62.3,29.8,64.1,31.6,64.5,33.9"/>
<g>
	<g class="st2">
		<path class="st1" d="M137.4,77.1c0,3-0.3,5.6-0.9,7.8c-0.6,2.1-1.8,4.1-3.5,5.9c-3.2,3.2-7.3,4.8-12.4,4.8
			c-5.5,0-9.8-1.6-12.8-4.8c-1.9-2-3.1-3.9-3.6-5.9c-0.5-2-0.8-4.6-0.8-7.8V50.2h11.4v26.9c0,2.5,0.4,4.6,1.2,6.1
			c0.8,1.6,2.3,2.3,4.6,2.3c1,0,1.9-0.2,2.6-0.5c0.7-0.3,1.3-0.8,1.7-1.2c0.4-0.5,0.7-1.1,0.9-2c0.2-0.8,0.4-1.6,0.4-2.3
			c0-0.7,0.1-1.5,0.1-2.5V50.2h11.4V77.1z"/>
	</g>
	<g class="st2">
		<path class="st0" d="M169.8,82.4c0,3.7-1.3,6.8-3.9,9.3c-2.6,2.5-5.8,3.8-9.5,3.8c-4,0-7.2-1.2-9.8-3.6c-2.6-2.4-3.9-5.6-3.9-9.6
			h4.5c0.1,2.8,1,5,2.6,6.7c1.6,1.7,3.8,2.5,6.6,2.5c2.5,0,4.6-0.9,6.3-2.6s2.6-3.8,2.6-6.3c0-2.7-0.9-4.7-2.6-6.1
			c-1.8-1.4-4.2-2.5-7.3-3.4c-1.8-0.6-3.4-1.1-4.5-1.6c-1.2-0.5-2.4-1.2-3.5-2c-1.2-0.9-2.1-2-2.6-3.3c-0.6-1.3-0.8-2.9-0.8-4.8
			c0-3.4,1.2-6.3,3.6-8.6c2.4-2.3,5.4-3.4,8.9-3.4c3.4,0,6.4,1.2,8.8,3.5c2.4,2.3,3.6,5.2,3.6,8.6h-4.5c0-2.2-0.8-4-2.3-5.7
			c-1.5-1.6-3.4-2.4-5.6-2.4c-2.2,0-4.1,0.7-5.7,2.2c-1.6,1.5-2.3,3.3-2.3,5.6c0,0.8,0.1,1.6,0.3,2.3c0.2,0.7,0.6,1.3,1.1,1.8
			c0.5,0.5,0.9,1,1.3,1.3c0.4,0.3,1,0.7,1.9,1.1c0.9,0.4,1.5,0.6,1.9,0.8c0.4,0.1,1.1,0.4,2.2,0.7c1.1,0.3,1.7,0.5,2,0.6
			C166.2,71.8,169.8,76,169.8,82.4z"/>
		<path class="st0" d="M196.5,54.2h-10.2v40.5h-4.5V54.2h-10.2v-4h24.8V54.2z"/>
		<path class="st0" d="M231.8,77.9c0,3.8-0.6,6.9-1.7,9.3c-1.2,2.7-3,4.7-5.4,6.2c-2.4,1.4-5.1,2.1-8.1,2.1c-3,0-5.7-0.7-8.1-2.1
			c-2.4-1.4-4.2-3.5-5.4-6.2c-1.1-2.4-1.7-5.5-1.7-9.3V50.2h4.5v27.7c0,3.6,0.5,6.3,1.5,8.1c2,3.6,5.1,5.5,9.2,5.5
			c4.1,0,7.2-1.8,9.2-5.5c1-1.8,1.5-4.5,1.5-8.1V50.2h4.5V77.9z"/>
		<path class="st0" d="M278.4,72.6c0,3.7-0.9,7.2-2.7,10.5c-1.8,3.3-4.3,6-7.4,8c-3.8,2.4-8.6,3.7-14.5,3.7h-13V50.2h13
			c5.9,0,10.7,1.2,14.5,3.7c3.1,2,5.6,4.7,7.4,8C277.5,65.2,278.4,68.8,278.4,72.6z M273.9,72.4c0-2.9-0.7-5.7-2-8.3
			c-1.3-2.6-3.2-4.8-5.6-6.4c-2-1.4-4.2-2.3-6.5-2.8c-2.3-0.4-5.1-0.7-8.2-0.7h-6.4v36.4h7.4c3,0,5.7-0.2,7.9-0.7
			c2.2-0.5,4.4-1.4,6.4-2.9c2.2-1.6,3.9-3.7,5.1-6.4C273.3,78,273.9,75.2,273.9,72.4z"/>
		<path class="st0" d="M290.1,94.7h-4.5V50.2h4.5V94.7z"/>
		<path class="st0" d="M337.4,56.1c4.7,4.5,7,9.9,7,16.3c0,6.4-2.3,11.8-7,16.3c-4.7,4.5-10.2,6.7-16.6,6.7
			c-6.3,0-11.8-2.2-16.5-6.7s-7-9.8-7-16.1c0-6.5,2.3-11.9,6.9-16.5c4.6-4.5,10.1-6.8,16.6-6.8C327.2,49.4,332.7,51.6,337.4,56.1z
			 M334.2,85.9c3.8-3.7,5.7-8.2,5.7-13.4c0-5.2-1.9-9.7-5.6-13.4c-3.7-3.7-8.3-5.6-13.5-5.6c-5.3,0-9.8,1.9-13.5,5.7
			c-3.7,3.8-5.6,8.3-5.6,13.6c0,5.1,1.9,9.5,5.7,13.2c3.8,3.7,8.2,5.5,13.4,5.5C326,91.4,330.5,89.6,334.2,85.9z"/>
		<path class="st0" d="M381.8,77.9c0,3.8-0.6,6.9-1.7,9.3c-1.2,2.7-3,4.7-5.4,6.2c-2.4,1.4-5.1,2.1-8.1,2.1s-5.7-0.7-8.1-2.1
			c-2.4-1.4-4.2-3.5-5.4-6.2c-1.1-2.4-1.7-5.5-1.7-9.3V50.2h4.5v27.7c0,3.6,0.5,6.3,1.5,8.1c2,3.6,5.1,5.5,9.2,5.5
			c4.1,0,7.2-1.8,9.2-5.5c1-1.8,1.5-4.5,1.5-8.1V50.2h4.5V77.9z"/>
		<path class="st0" d="M414.8,82.4c0,3.7-1.3,6.8-3.9,9.3c-2.6,2.5-5.8,3.8-9.5,3.8c-4,0-7.2-1.2-9.8-3.6c-2.6-2.4-3.9-5.6-3.9-9.6
			h4.5c0.1,2.8,1,5,2.6,6.7c1.6,1.7,3.8,2.5,6.6,2.5c2.5,0,4.6-0.9,6.3-2.6s2.6-3.8,2.6-6.3c0-2.7-0.9-4.7-2.6-6.1
			c-1.8-1.4-4.2-2.5-7.3-3.4c-1.8-0.6-3.4-1.1-4.5-1.6c-1.2-0.5-2.4-1.2-3.5-2c-1.2-0.9-2.1-2-2.6-3.3c-0.6-1.3-0.8-2.9-0.8-4.8
			c0-3.4,1.2-6.3,3.6-8.6c2.4-2.3,5.4-3.4,8.9-3.4c3.4,0,6.4,1.2,8.8,3.5c2.4,2.3,3.6,5.2,3.6,8.6h-4.5c0-2.2-0.8-4-2.3-5.7
			c-1.5-1.6-3.4-2.4-5.6-2.4c-2.2,0-4.2,0.7-5.7,2.2s-2.3,3.3-2.3,5.6c0,0.8,0.1,1.6,0.3,2.3c0.2,0.7,0.6,1.3,1.1,1.8
			c0.5,0.5,0.9,1,1.3,1.3c0.4,0.3,1,0.7,1.9,1.1c0.9,0.4,1.5,0.6,1.9,0.8c0.4,0.1,1.1,0.4,2.2,0.7c1.1,0.3,1.7,0.5,2,0.6
			C411.1,71.8,414.8,76,414.8,82.4z"/>
	</g>
</g>
<g>
	<g class="st2">
		<path class="st3" d="M192.4,127.3h-10.5v-19.5h10.5v2.6h-7.7v5.8h7.7v2.6h-7.7v5.9h7.7V127.3z"/>
		<path class="st3" d="M210.2,127.3h-2.5v-2.1h-0.1c-1.2,1.6-2.9,2.5-5.2,2.5c-2.2,0-4-0.7-5.4-2.2c-1.4-1.5-2.2-3.3-2.2-5.4
			c0-2.2,0.7-4,2.2-5.5c1.4-1.5,3.2-2.2,5.4-2.2c1,0,1.9,0.2,2.8,0.6c0.9,0.4,1.6,0.9,2.2,1.6h0.1v-6.7h2.7V127.3z M207.7,120
			c0-1.5-0.5-2.7-1.4-3.7c-0.9-1-2.2-1.5-3.6-1.5c-1.4,0-2.6,0.5-3.6,1.5c-1,1-1.4,2.3-1.4,3.7c0,1.4,0.5,2.6,1.5,3.6
			c1,1,2.1,1.5,3.5,1.5c1.4,0,2.6-0.5,3.6-1.5C207.2,122.6,207.7,121.4,207.7,120z"/>
		<path class="st3" d="M226.7,127.3h-2.5v-1.6h-0.1c-0.4,0.7-1,1.2-1.8,1.5c-0.8,0.3-1.6,0.5-2.5,0.5c-1.7,0-3-0.5-4.2-1.5
			c-1.3-1.1-1.9-3-1.9-5.6v-7.9h2.7v7.9c0,1.4,0.3,2.5,0.8,3.4c0.5,0.8,1.5,1.2,2.8,1.2c1.3,0,2.3-0.4,2.9-1.3
			c0.6-0.9,0.9-2,0.9-3.4v-7.8h2.7V127.3z"/>
		<path class="st3" d="M244.1,122.4c-0.5,1.6-1.5,2.8-2.8,3.8s-2.8,1.4-4.4,1.4c-2.1,0-3.9-0.7-5.4-2.2s-2.1-3.3-2.1-5.5
			c0-2.1,0.7-4,2.2-5.4c1.4-1.5,3.2-2.2,5.4-2.2c1.6,0,3.1,0.5,4.5,1.5s2.3,2.2,2.7,3.8h-3c-0.9-1.8-2.3-2.7-4.1-2.7
			c-1.5,0-2.6,0.5-3.5,1.5s-1.3,2.2-1.3,3.7c0,1.4,0.4,2.7,1.3,3.7s2,1.5,3.4,1.5c0.9,0,1.8-0.2,2.5-0.7c0.7-0.5,1.3-1.1,1.7-2
			H244.1z"/>
		<path class="st3" d="M261.5,127.3h-2.7V125h-0.1c-0.5,0.9-1.2,1.5-2.1,2c-0.9,0.4-1.9,0.7-2.9,0.7c-2.2,0-4-0.7-5.5-2.2
			s-2.2-3.3-2.2-5.5c0-2.2,0.7-4.1,2.2-5.5s3.3-2.2,5.5-2.2c1,0,2,0.2,2.8,0.6c0.9,0.4,1.6,1,2.1,1.8h0.1v-2.1h2.7V127.3z
			 M258.8,120c0-1.5-0.5-2.7-1.4-3.7c-1-1-2.2-1.5-3.6-1.5c-1.4,0-2.6,0.5-3.6,1.5c-1,1-1.4,2.3-1.4,3.7c0,1.4,0.5,2.6,1.5,3.6
			c1,1,2.1,1.5,3.5,1.5c1.4,0,2.6-0.5,3.6-1.5C258.3,122.6,258.8,121.4,258.8,120z"/>
		<path class="st3" d="M270.6,115.2h-2.4v12.1h-2.7v-12.1h-2v-2.5h2v-4.9h2.7v4.9h2.4V115.2z"/>
		<path class="st3" d="M275.2,111h-2.7v-3.2h2.7V111z M275.2,127.3h-2.7v-14.6h2.7V127.3z"/>
		<path class="st3" d="M293.8,119.9c0,2.1-0.8,3.9-2.3,5.4c-1.5,1.5-3.4,2.3-5.6,2.3c-2.2,0-4-0.8-5.6-2.3c-1.5-1.5-2.3-3.4-2.3-5.5
			c0-2.1,0.8-3.9,2.3-5.4c1.6-1.5,3.4-2.2,5.6-2.2c2.2,0,4,0.7,5.6,2.2S293.8,117.8,293.8,119.9z M289.5,123.6c1-1,1.5-2.3,1.5-3.7
			s-0.5-2.6-1.5-3.6c-1-1-2.2-1.5-3.6-1.5s-2.6,0.5-3.6,1.5c-1,1-1.5,2.2-1.5,3.7s0.5,2.6,1.5,3.7c1,1,2.2,1.5,3.6,1.5
			S288.5,124.6,289.5,123.6z"/>
		<path class="st3" d="M309.5,127.3h-2.7v-7.9c0-3-1.2-4.6-3.6-4.6c-1.3,0-2.2,0.4-2.9,1.3c-0.6,0.9-1,1.9-1,3.3v8h-2.7v-14.6h2.6
			v1.6h0.1c1-1.3,2.4-2,4.3-2c2.3,0,4.1,0.9,5.2,2.6c0.6,1,0.9,2.2,0.9,3.7V127.3z"/>
		<path class="st3" d="M327.8,127.3H325V125H325c-0.5,0.9-1.2,1.5-2.1,2c-0.9,0.4-1.9,0.7-2.9,0.7c-2.2,0-4-0.7-5.5-2.2
			c-1.5-1.4-2.2-3.3-2.2-5.5c0-2.2,0.7-4.1,2.2-5.5s3.3-2.2,5.5-2.2c1,0,2,0.2,2.9,0.6c0.9,0.4,1.6,1,2.1,1.8h0.1v-2.1h2.7V127.3z
			 M325.1,120c0-1.5-0.5-2.7-1.4-3.7c-0.9-1-2.2-1.5-3.6-1.5c-1.4,0-2.6,0.5-3.6,1.5c-1,1-1.4,2.3-1.4,3.7c0,1.4,0.5,2.6,1.5,3.6
			c1,1,2.1,1.5,3.5,1.5c1.4,0,2.6-0.5,3.6-1.5S325.1,121.4,325.1,120z"/>
		<path class="st3" d="M334.2,127.3h-2.7v-19.5h2.7V127.3z"/>
		<path class="st3" d="M356.1,109.2c1.3,1,1.9,2.5,1.9,4.4c0,2-0.6,3.5-1.9,4.4c-1.3,1-2.9,1.5-5,1.5h-2.8v7.7h-2.8v-19.5h5.6
			C353.2,107.7,354.8,108.2,356.1,109.2z M354,116.1c0.8-0.5,1.1-1.4,1.1-2.5s-0.4-2-1.1-2.5c-0.8-0.5-1.7-0.8-2.9-0.8h-2.8v6.6h2.8
			C352.3,116.9,353.2,116.7,354,116.1z"/>
		<path class="st3" d="M374.7,119.9c0,2.1-0.8,3.9-2.3,5.4c-1.5,1.5-3.4,2.3-5.6,2.3c-2.2,0-4-0.8-5.6-2.3c-1.5-1.5-2.3-3.4-2.3-5.5
			c0-2.1,0.8-3.9,2.3-5.4c1.6-1.5,3.4-2.2,5.6-2.2c2.2,0,4,0.7,5.6,2.2S374.7,117.8,374.7,119.9z M370.5,123.6c1-1,1.5-2.3,1.5-3.7
			s-0.5-2.6-1.5-3.6c-1-1-2.2-1.5-3.6-1.5s-2.6,0.5-3.6,1.5c-1,1-1.5,2.2-1.5,3.7s0.5,2.6,1.5,3.7c1,1,2.2,1.5,3.6,1.5
			S369.5,124.6,370.5,123.6z"/>
		<path class="st3" d="M383.9,115.1c-0.7,0-1.3,0.2-2,0.5c-1.1,0.5-1.6,1.8-1.6,3.7v8h-2.7v-14.6h2.6v1.3h0.1c0.8-1.1,2-1.7,3.7-1.7
			V115.1z"/>
		<path class="st3" d="M392,115.2h-2.4v12.1h-2.7v-12.1h-2v-2.5h2v-4.9h2.7v4.9h2.4V115.2z"/>
		<path class="st3" d="M408.6,127.3h-2.7V125h-0.1c-0.5,0.9-1.2,1.5-2.1,2c-0.9,0.4-1.9,0.7-2.9,0.7c-2.2,0-4-0.7-5.5-2.2
			s-2.2-3.3-2.2-5.5c0-2.2,0.7-4.1,2.2-5.5s3.3-2.2,5.5-2.2c1,0,2,0.2,2.8,0.6c0.9,0.4,1.6,1,2.1,1.8h0.1v-2.1h2.7V127.3z
			 M405.9,120c0-1.5-0.5-2.7-1.4-3.7c-1-1-2.2-1.5-3.6-1.5c-1.4,0-2.6,0.5-3.6,1.5c-1,1-1.4,2.3-1.4,3.7c0,1.4,0.5,2.6,1.5,3.6
			c1,1,2.1,1.5,3.5,1.5c1.4,0,2.6-0.5,3.6-1.5C405.4,122.6,405.9,121.4,405.9,120z"/>
		<path class="st3" d="M415,127.3h-2.7v-19.5h2.7V127.3z"/>
	</g>
</g>
</svg>
